<svg xmlns="http://www.w3.org/2000/svg" version="1.1" xmlns:xlink="http://www.w3.org/1999/xlink" xmlns:svgjs="http://svgjs.com/svgjs" width="1000" height="1000"><rect width="1000" height="1000" rx="200" ry="200" fill="#4d4c4c"></rect><g transform="matrix(2.8368794326241136,0,0,2.8368794326241136,100,100)"><svg xmlns="http://www.w3.org/2000/svg" version="1.1" xmlns:xlink="http://www.w3.org/1999/xlink" xmlns:svgjs="http://svgjs.com/svgjs" width="282" height="282"><svg width="282" height="282" viewBox="0 0 282 282" fill="none" xmlns="http://www.w3.org/2000/svg">
<path d="M117.5 246.75L47 164.5M117.5 246.75H164.5M117.5 246.75L105.75 199.75M47 164.5L70.5 82.25M47 164.5L105.75 199.75M235 164.5L164.5 246.75M235 164.5L211.5 82.25M235 164.5L176.25 199.75L105.75 199.75M164.5 246.75L176.25 200.668L170.375 111.625M70.5 82.25L141 35.25M70.5 82.25L111.625 111.625M141 35.25L211.5 82.25M141 35.25L170.375 111.625M141 35.25L111.625 111.625M211.5 82.25L170.375 111.625M170.375 111.625L111.625 111.625M111.625 111.625L105.75 199.75" stroke="url(#paint0_linear_451_4880)" stroke-width="12" stroke-linecap="round" stroke-linejoin="round"></path>
<defs>
<linearGradient id="paint0_linear_451_4880" x1="87.9744" y1="286.548" x2="147.143" y2="65.2613" gradientUnits="userSpaceOnUse">
<stop offset="0.22603" stop-color="#E65DFC"></stop>
<stop offset="0.582983" stop-color="#FFC996"></stop>
<stop offset="0.991212" stop-color="#94CBFE"></stop>
</linearGradient>
</defs>
</svg></svg></g></svg>